<svg xmlns="http://www.w3.org/2000/svg" xmlns:xlink="http://www.w3.org/1999/xlink" width="212" zoomAndPan="magnify" viewBox="0 0 159 112.499997" height="150" preserveAspectRatio="xMidYMid meet" version="1.0"><defs><clipPath id="a367255640"><path d="M 47.421875 13.09375 L 116.117188 13.09375 L 116.117188 72.828125 L 47.421875 72.828125 Z M 47.421875 13.09375 " clip-rule="nonzero"/></clipPath><clipPath id="69f90aa4f3"><path d="M 47.421875 39.15625 L 116.117188 39.15625 L 116.117188 98.890625 L 47.421875 98.890625 Z M 47.421875 39.15625 " clip-rule="nonzero"/></clipPath><clipPath id="a8a75fbbb3"><path d="M 27.296875 1.160156 L 136.3125 1.160156 L 136.3125 110.921875 L 27.296875 110.921875 Z M 27.296875 1.160156 " clip-rule="nonzero"/></clipPath></defs><g clip-path="url(#a367255640)"><path fill="#5ce1e6" d="M 97.746094 15.167969 L 113.726562 42.960938 L 97.746094 70.753906 L 65.789062 70.753906 L 49.796875 42.960938 L 65.789062 15.167969 L 97.746094 15.167969 M 98.941406 13.101562 L 64.59375 13.101562 L 47.421875 42.960938 L 64.59375 72.820312 L 98.941406 72.820312 L 116.117188 42.960938 Z M 98.941406 13.101562 " fill-opacity="1" fill-rule="nonzero"/></g><g clip-path="url(#69f90aa4f3)"><path fill="#5ce1e6" d="M 97.746094 41.234375 L 113.726562 69.023438 L 97.746094 96.816406 L 65.789062 96.816406 L 49.796875 69.023438 L 65.789062 41.234375 L 97.746094 41.234375 M 98.941406 39.164062 L 64.59375 39.164062 L 47.421875 69.023438 L 64.59375 98.886719 L 98.941406 98.886719 L 116.117188 69.023438 Z M 98.941406 39.164062 " fill-opacity="1" fill-rule="nonzero"/></g><g clip-path="url(#a8a75fbbb3)"><path fill="#5ce1e6" d="M 29.742188 23.4375 L 29.730469 26.527344 C 29.832031 29.265625 29.449219 56.867188 28.578125 109.332031 L 68.652344 109.640625 C 58.945312 109.085938 61.289062 108.78125 75.691406 108.714844 L 134.953125 109.492188 L 135.125 109.125 C 135.234375 98.539062 135.289062 88.667969 135.292969 79.511719 C 135.078125 77.421875 134.964844 72.964844 134.957031 66.144531 C 134.96875 59.746094 135.164062 43.171875 135.539062 16.417969 C 135.417969 18.851562 135.289062 18.65625 135.144531 15.835938 L 134.894531 2.503906 L 99.980469 2.011719 L 99.75 2.007812 C 100.078125 2.042969 100.0625 2.089844 99.707031 2.144531 L 97.8125 2.269531 L 91.136719 2.378906 L 31.859375 1.71875 C 38.140625 1.347656 56.375 1.351562 86.558594 1.730469 C 85.070312 1.609375 85.417969 1.496094 87.597656 1.382812 C 89.777344 1.285156 92.695312 1.230469 96.351562 1.226562 L 134.828125 1.667969 L 135.8125 2.601562 L 135.675781 11.792969 C 136.003906 16.402344 136.179688 20.160156 136.210938 23.074219 L 135.859375 61.957031 C 136.160156 61.800781 136.28125 74.386719 136.230469 99.71875 L 136.179688 109.136719 L 134.941406 110.546875 L 101.640625 110.21875 C 97.523438 110.6875 73.140625 110.769531 28.492188 110.464844 L 27.300781 109.179688 C 27.621094 77.855469 27.839844 58.984375 27.957031 52.570312 C 28.308594 29.246094 28.644531 14.546875 28.964844 8.472656 C 29.15625 5.761719 29.339844 5.828125 29.519531 8.675781 C 29.695312 12.464844 29.769531 17.382812 29.742188 23.4375 " fill-opacity="1" fill-rule="nonzero"/></g></svg>